<?xml version="1.0" encoding="utf-8"?>
<!-- Generated by IcoMoon.io -->
<!DOCTYPE svg PUBLIC "-//W3C//DTD SVG 1.1//EN" "http://www.w3.org/Graphics/SVG/1.1/DTD/svg11.dtd">
<svg version="1.1" xmlns="http://www.w3.org/2000/svg" xmlns:xlink="http://www.w3.org/1999/xlink" width="973" height="1024" viewBox="0 0 973 1024">
<g>
</g>
	<path d="M103.445 1021.62c-6.513-2.357-1.372-11.628 17.609-31.754 22.378-23.728 35.959-40.586 35.959-44.635 0-7.353-10.597-2.225-19.453 9.414-17.945 23.585-76.549 65.942-91.237 65.942-10.089 0-0.93-10.514 35.91-41.221 35.054-29.219 52.649-46.901 49.651-49.899-0.732-0.732-13.901 7.672-29.263 18.676-34.514 24.722-74.607 45.138-88.642 45.138-5.811 0-10.565-1.319-10.565-2.93s8.505-8.577 18.901-15.48c10.395-6.902 18.121-13.811 17.169-15.352s-9.258-2.079-18.457-1.195c-27.633 2.655-24.297-4.295 10.41-21.687 56.645-28.385 96.87-58.112 69.258-51.181-14.538 3.649-9.895-5.599 9.274-18.468 9.787-6.571 29.644-21.514 44.127-33.208s37.577-28.099 51.32-36.456c34.908-21.229 51.607-36.476 64.004-58.443 6.553-11.61 28.866-37.028 57.704-65.732 46.61-46.392 89.306-102.548 89.306-117.458 0-3.471-3.456-7.645-7.68-9.274s-13.824-7.888-21.333-13.908c-23.855-19.124-38.73-24.923-68.267-26.614-15.019-0.86-30.287-3.119-33.929-5.022-6.505-3.398-6.498-3.56 0.421-9.162 3.874-3.137 20.677-10.053 37.342-15.369s41.388-15.053 54.94-21.637c26.942-13.089 19.927-12.701 97.324-5.389 22.668 2.141 23.18 2.004 38.046-10.176 8.287-6.791 23.841-25.668 34.563-41.949s28.998-39.733 40.613-52.115c34.539-36.821 59.324-72.457 73.558-105.761 16.311-38.163 21.57-46.809 50.842-83.594 24.645-30.969 59.381-62.142 65.223-58.532 1.96 1.211 3.564 5.184 3.564 8.828s1.332 6.625 2.96 6.625c6.861 0 32.95-47.19 42.909-77.613 6.801-20.776 9.614-23.43 17.002-16.041 9.045 9.045 6.222 21.209-13.915 59.967-10.621 20.441-18.185 38.29-16.811 39.665 4.933 4.933 31.598-28.214 39.206-48.738 12.935-34.896 28.234-65.965 33.473-67.975 24.688-9.474 7.020 46.882-28.056 89.489-8.43 10.24-15.328 19.978-15.328 21.64 0 6.939 8.922 2.056 22.901-12.533 19.516-20.368 69.259-82.868 69.259-87.021 0-1.781 2.304-3.238 5.12-3.238 8.379 0 6.007 17.114-5.042 36.38-5.554 9.684-18.805 27.011-29.446 38.504s-18.502 21.743-17.469 22.776c3.479 3.479 17.374-6.354 42.24-29.89 17.276-16.352 27.343-23.398 33.432-23.398 4.791 0 8.711 1.163 8.711 2.585s-8.71 12.558-19.356 24.747l-19.356 22.162 13.382 1.707c10.579 1.349 13.608 3.293 14.459 9.281 0.841 5.917-2.633 9.857-15.882 18.009-25.684 15.803-26.789 26.1-3.772 35.142 16.642 6.537 17.262 14.29 1.558 19.473-15.572 5.139-17.707 9.312-8.944 17.477 3.954 3.684 7.19 8.222 7.19 10.084s-8.031 11.166-17.846 20.677c-16.181 15.679-17.296 17.693-11.947 21.604 8.9 6.508 7.387 10.889-10.438 30.218-21.7 23.531-34.863 43.623-34.863 53.218 0 4.978-7.945 16.096-21.824 30.537-20.763 21.604-21.577 23.075-16.742 30.25 4.81 7.139 4.126 8.552-12.811 26.459-14.689 15.531-17.955 21.203-18.244 31.685-0.339 12.265-0.957 12.903-15.712 16.207-18.346 4.109-24.131 7.514-31.779 18.706-8.043 11.769-7.198 17.16 2.687 17.16 5.186 0 10.555 3.206 13.888 8.293 5.434 8.293 5.435 8.293 78.47 9.387 64.358 0.964 73.752 1.81 79.058 7.122 5.026 5.031 5.318 7.155 1.769 12.839-3.482 5.575-3.292 8.277 1.044 14.895 4.968 7.582 4.74 8.747-3.661 18.731-7.527 8.946-8.605 12.734-6.75 23.718 2.319 13.725-0.501 18.2-16.478 26.148-4.024 2.002-9.961 9.24-13.193 16.086-7.592 16.077-17.32 22.654-37.46 25.326-8.952 1.188-18.028 4.269-20.168 6.847-9.999 12.048-55.002 1.155-87.686-21.224-12.087-8.276-25.082-15.047-28.878-15.047s-13.453-6.039-21.46-13.42c-10.492-9.671-16.563-12.896-21.733-11.544-3.946 1.032-9.507-0.060-12.359-2.426s-5.657-3.7-6.234-2.963c-8.682 11.084-12.439 20.55-12.439 31.337 0 15.107-4.703 25.377-15.518 33.884-4.184 3.291-8.571 9.821-9.747 14.509-2.666 10.622-18.084 18.889-35.228 18.889-11.452 0-13.847 1.486-19.592 12.155-11.251 20.893-80.188 89.076-96.585 95.53-9.792 3.854-17.627 10.333-23.998 19.845-7.681 11.469-11.713 14.315-21.45 15.141-9.837 0.835-13.497 3.477-20.376 14.708-9.914 16.189-25.755 26.941-39.691 26.941-7.035 0-13.526 3.646-21.784 12.238-12.664 13.175-26.877 21.895-35.687 21.895-3.019 0-11.16 4.418-18.090 9.818s-17.862 11.558-24.293 13.685c-10.32 3.413-12.61 3.006-19.5-3.467-7.343-6.899-8.305-7.008-16.202-1.833-4.618 3.026-12.501 13.044-17.518 22.263-14.133 25.967-34.816 30.664-30.048 6.823 1.072-5.358 1.109-9.742 0.084-9.742s-11.797 9.6-23.936 21.333c-23.583 22.794-39.095 33.286-45.687 30.9zM95.233 931.525c19.676-13.139 30.527-25.25 26.359-29.418-2.144-2.144-56.458 37.016-56.626 40.826-0.256 5.826 10.568 1.747 30.267-11.408z"></path>
</svg>
